<svg width="16" height="16" viewBox="0 0 16 16" fill="none" xmlns="http://www.w3.org/2000/svg">
<path d="M15.9479 0.999088L10.1266 15.5381C10.0702 15.6815 9.9699 15.8034 9.8399 15.8862C9.71 15.9689 9.5572 16.0083 9.4035 15.9986C9.2498 15.9888 9.1031 15.9306 8.9846 15.8321C8.8661 15.7336 8.7819 15.6001 8.744 15.4507L7.1141 8.895L0.548788 7.2469C0.399508 7.209 0.266088 7.1247 0.167728 7.0061C0.0693779 6.8875 0.0111481 6.7407 0.0014481 6.5868C-0.00826191 6.4329 0.031048 6.28 0.113708 6.1499C0.196378 6.0198 0.318138 5.91937 0.461468 5.86297L15.0019 0.0521574C15.1342 -0.000822581 15.279 -0.0137922 15.4186 0.0148578C15.5581 0.0435078 15.6862 0.112517 15.7869 0.213337C15.8876 0.314157 15.9565 0.442357 15.9852 0.582027C16.0138 0.721707 16.0008 0.866718 15.9479 0.999088Z" fill="white"/>
</svg>
